#N canvas 863 182 621 351 12;
#X declare -lib cyclone;
#X declare -lib iemlib;
#X declare -path pd;
#X text -12 -161 SPEED ANALYSIS WINDOW (ms);
#X text 72 -131 SMOOTHING (ms);
#X obj 180 -162 nbx 3 20 5 120 0 1 ui-speed-send ui-speed-recv empty
0 -8 1 16 -262144 -39609 -1 30 256;
#X obj 180 -131 nbx 3 20 1 100 0 1 ui-smooth-send ui-smooth-recv empty
0 -8 1 16 -262144 -39609 -1 7 256;
#X text 78 -100 MIN VARIATION;
#X obj 180 -100 nbx 4 20 0 1 0 1 ui-minvar-send ui-minvar-recv empty
0 -8 1 16 -262144 -39609 -1 0.05 100;
#X floatatom 180 -63 5 0 800 0 - ui-measuredspeed-recv ui-measuredspeed-send
;
#X obj 130 -12 nbx 3 20 -90 0 0 1 ui-gate0-send ui-gate0-recv empty
0 -8 1 16 -262144 -39609 -262144 -38 256;
#X obj 130 17 nbx 3 20 -90 0 0 1 ui-gate1-send ui-gate1-recv empty
0 -8 1 16 -262144 -39609 -262144 -13 256;
#X obj 457 -143 hsl 128 8 0 1 0 0 _ vusource empty -2 -8 0 10 -33289
-259664 -1 4648 1;
#X obj 267 -25 hsl 128 8 0 1 0 0 _ masterL empty -2 -8 0 10 -128992
-4034 -1 4111 1;
#X obj 267 -17 hsl 128 8 0 1 0 0 _ masterR empty -2 -8 0 10 -128992
-4034 -1 4573 1;
#X text 37 -64 MEASURED SPEED (Hz);
#X obj 454 -29 nbx 4 20 -904 0 0 1 ui-mastergaindb-send ui-mastergaindb-recv
empty 0 -8 1 16 -262144 -39609 -162280 0 256;
#X text 263 -43 MASTER;
#X floatatom 398 -28 5 0 0 0 - masterdb _;
#X floatatom 550 -163 5 0 0 0 - vusourcedb _;
#X obj 266 -94 hsl 128 8 0 1 0 0 _ vuanalogL empty -2 -8 0 10 -33289
-4034 -1 6353 1;
#X obj 266 -86 hsl 128 8 0 1 0 0 _ vuanalogR empty -2 -8 0 10 -33289
-4034 -1 7098 1;
#X obj 457 -95 hsl 128 8 0 1 0 0 _ v0post empty -2 -8 0 10 -33289 -126974
-1 0 1;
#X obj 457 -87 hsl 128 8 0 1 0 0 _ v1post empty -2 -8 0 10 -33289 -126974
-1 0 1;
#X text 451 -112 DIG;
#X text 261 -111 ANA;
#X obj 410 -102 knob 32 32 0 1 0 0 ui-mix-send ui-mix-recv empty 0
-8 0 8 -262144 -39609 -1 0 1;
#X obj 133 62 hsl 80 17 1 5 0 1 stereomagn-send stereomagn-recv empty
-2 -8 0 10 -262144 -1 -1 1300 1;
#X obj 133 89 hsl 80 17 0 100 0 1 ringmodboost-send ringmodboost-recv
empty -2 -8 0 10 -262144 -1 -1 600 1;
#X floatatom 215 88 5 0 100 0 - ringmodboost-nb-recv _;
#X floatatom 215 61 5 0 100 0 - stereomagn-nb-recv _;
#X text 19 16 GATE THRESH dB;
#X text -2 -40 __________________________________;
#X text 0 34 __________________________________;
#X text 4 34 __________________________________;
#X obj 334 18 cnv 15 90 90 empty empty empty 20 12 0 14 -162280 -66577
0;
#X obj 363 42 bng 32 250 50 0 stop-send stop-recv STOP -1 -6 1 13 -262144
-1 -1;
#X text 39 -10 GATE -90 dB;
#X obj -3 113 cnv 15 590 40 empty empty empty 20 12 0 14 -203904 -66577
0;
#X obj 427 18 cnv 5 160 90 empty empty empty 20 12 0 14 -228856 -66577
0;
#N canvas 51 122 655 400 HELP 0;
#X text 9 8 This is the user interface for MOIRE;
#X text 16 33 You dont need to turn DSP on \, since audio is processed
externally. This is only a user interface.;
#X text 15 73 CHECK 1: If the "ACTIVE" checkbox (down-right) is checked
\, audio and sensors are being processed. "samplerate" should be around
1300;
#X text 14 128 TO STOP: press the "STOP" button. Save the current state
by pressing "CTRL-S" or go to File/Save. Then you can quit PD (CTRL-Q)
;
#X restore 534 18 pd HELP;
#X obj 433 24 tgl 15 0 onoff-send onoff-recv OFF 18 7 0 9 -258699 -258699
-1 0 1;
#X obj 339 89 tgl 15 1 autosave-send autosave-recv AUTOSAVE 18 7 0
9 -262144 -24198 -1 1 1;
#X text 373 132 * click on "pd HELP" for HELP;
#X floatatom 359 -114 5 0 0 0 - vuanalogdb _;
#X floatatom 550 -115 5 0 0 0 - vudigitaldb _;
#X text -2 60 STEREO MAGNIFY (X);
#X text 5 87 RINGMOD BOOST (%);
#X obj 263 -76 nbx 3 13 -48 48 0 1 gainanalog-send gainanalog-recv
pregate(dB) 0 20 1 10 -99865 -262144 -66577 0 256;
#X obj 454 -77 nbx 3 13 -48 48 0 1 gaindigital-send gaindigital-recv
dB 34 7 1 10 -99865 -262144 -66577 -3 256;
#X obj 518 -25 tgl 16 0 ui-mute-send ui-mute-recv M 6 8 0 9 -262144
-1 -1 0 1;
#N canvas 1192 44 703 490 advanced 1;
#N canvas 246 266 872 557 guts 0;
#X msg 13 111 set \$1;
#X obj 13 31 rmstodb;
#X obj 13 11 r ui-inputknob-send;
#X obj 13 131 s ui-inputnb-recv;
#X obj 519 30 loadbang;
#X obj 15 228 r ringmodboost-send;
#X obj 15 248 s ringmodboost-nb-recv;
#X obj 12 182 s stereomagn-nb-recv;
#X obj 12 162 r stereomagn-send;
#X obj 198 204 change;
#X obj 198 254 s dumpstate;
#X obj 647 9 r dumpstate;
#X msg 747 29 bang;
#X obj 747 49 v g-mute;
#X obj 747 70 s mute-send;
#X msg 519 54 \; dumpstate bang \; isactive 0 \;;
#X obj 198 118 r samplerate;
#X obj 231 176 s isactive;
#X obj 198 230 select 1;
#X msg 200 52 menusave;
#X obj 200 72 s pd-moiregui2.pd;
#X text 515 8 INIT;
#X obj 200 12 r autosave-send;
#N canvas 1113 81 515 441 isactive 0;
#X obj 157 38 inlet;
#X obj 168 302 outlet;
#X obj 127 120 timer;
#X obj 260 16 loadbang;
#X text 155 16 samplerate;
#X obj 168 179 !*;
#X obj 218 145 > 100;
#X obj 177 208 select 0;
#X obj 177 256 s ui-samplerate-recv;
#X msg 177 232 -1;
#X obj 127 74 t b b;
#X obj 127 145 < 800;
#X obj 127 97 delay 3;
#X obj 260 39 metro 1000;
#X connect 0 0 10 0;
#X connect 0 0 6 0;
#X connect 2 0 11 0;
#X connect 3 0 13 0;
#X connect 5 0 1 0;
#X connect 5 0 7 0;
#X connect 6 0 5 1;
#X connect 7 0 9 0;
#X connect 9 0 8 0;
#X connect 10 0 12 0;
#X connect 10 1 2 1;
#X connect 11 0 5 0;
#X connect 12 0 2 0;
#X connect 13 0 10 0;
#X restore 198 144 pd isactive;
#N canvas 874 572 450 300 show-onoff-status 0;
#X obj 90 107 select 0 1;
#X obj 90 74 change;
#X obj -8 43 speedlim 2000;
#X msg 12 154 \; onoff-recv color 13 13 22 \; onoff-recv label OFF
\; stop-recv color 0 22 22;
#X msg 232 153 \; onoff-recv color 16 16 22 \; onoff-recv label ON
\; stop-recv color 13 22 22;
#X obj 90 9 r isactive;
#X connect 0 0 3 0;
#X connect 0 1 4 0;
#X connect 1 0 0 0;
#X connect 2 0 0 0;
#X connect 5 0 1 0;
#X connect 5 0 2 0;
#X restore 356 13 pd show-onoff-status;
#X obj 339 189 timer;
#X obj 339 138 t b b;
#X obj 356 215 s update-period;
#X obj 319 165 delay 2;
#X obj 200 32 metro 20000;
#X obj 13 51 - 100;
#X obj 13 71 int;
#N canvas 366 324 450 300 mute-control 0;
#X obj 53 33 change;
#X obj 53 62 select 0 1;
#X msg 53 126 \; ui-mute-recv color 0 22 22;
#X obj 53 8 r ui-mute-send;
#X msg 86 87 \; ui-mute-recv color 13 13 22;
#X connect 0 0 1 0;
#X connect 1 0 2 0;
#X connect 1 1 4 0;
#X connect 3 0 0 0;
#X restore 356 37 pd mute-control;
#X obj 353 350 s guirate;
#X obj 339 239 t b f;
#X obj 353 289 /;
#X msg 339 264 1000;
#X obj 353 330 int;
#X obj 353 310 smooth 0.2;
#X obj 13 91 clip -99 0;
#X msg 647 94 \; stereomagn-recv bang \; ringmodboost-recv bang \;
ui-mastergaindb-recv bang \; ui-gate1-recv bang \; ui-gate0-recv bang
\; ui-minvar-recv bang \; ui-smooth-recv bang \; ui-speed-recv bang
\; volcurve-recv bang \; diggainL-recv bang \; diggainR-recv bang \;
ringspread-recv bang \; feedbackwet-recv bang \; feedback-recv bang
\; gainanalog-recv bang \; gaindigital-recv bang \; feedbackwet-recv
bang \; feedback-recv bang \; shiftwet-recv bang \; phasewet-recv bang
\; gainanalogpost-recv bang \;;
#X connect 0 0 3 0;
#X connect 1 0 30 0;
#X connect 2 0 1 0;
#X connect 4 0 15 0;
#X connect 5 0 6 0;
#X connect 8 0 7 0;
#X connect 9 0 18 0;
#X connect 11 0 40 0;
#X connect 11 0 12 0;
#X connect 12 0 13 0;
#X connect 13 0 14 0;
#X connect 16 0 23 0;
#X connect 16 0 26 0;
#X connect 18 0 10 0;
#X connect 19 0 20 0;
#X connect 22 0 29 0;
#X connect 23 0 17 0;
#X connect 23 0 9 0;
#X connect 25 0 27 0;
#X connect 25 0 34 0;
#X connect 26 0 28 0;
#X connect 26 1 25 1;
#X connect 28 0 25 0;
#X connect 29 0 19 0;
#X connect 30 0 31 0;
#X connect 31 0 39 0;
#X connect 34 0 36 0;
#X connect 34 1 35 1;
#X connect 35 0 38 0;
#X connect 36 0 35 0;
#X connect 37 0 33 0;
#X connect 38 0 37 0;
#X connect 39 0 0 0;
#X restore 256 -131 pd guts;
#N canvas 1501 91 450 300 pathsandlibs 0;
#X obj 28 19 import cyclone;
#X obj 28 41 import iemlib;
#X obj 26 74 declare -path pd;
#X restore 362 -131 pd pathsandlibs;
#N canvas 104 56 770 668 osc 0;
#X obj 15 38 OSCroute /info;
#X obj 69 500 s v0pre;
#X obj 87 479 s v1pre;
#X obj 105 450 s v0post;
#X obj 128 426 s v1post;
#X obj 33 560 s ui-mix-recv;
#X obj 382 -15 s ui-inputknob-recv;
#X obj 177 269 s vusource;
#X obj 141 353 s masterL;
#X obj 159 320 s masterR;
#X obj 141 401 s masterdb;
#X obj 177 294 rmstodb;
#X obj 266 314 - 100;
#X obj 266 361 s vusourcedb;
#X obj 15 12 dumpOSC 30019;
#X obj 195 233 s samplerate;
#X obj 382 -42 r inputgain;
#X obj 53 532 s inputgain;
#X obj 537 -41 r samplerate;
#X obj 537 -18 s ui-samplerate-recv;
#X obj 15 587 s measuredspeed;
#X obj 384 92 s ui-measuredspeed-recv;
#X obj 384 41 r measuredspeed;
#X obj 384 65 int;
#X obj 213 204 s vuanalogL;
#X obj 231 178 s vuanalogR;
#X obj 390 136 r vuanalogL;
#X obj 489 136 r vuanalogR;
#X obj 418 220 s vuanalogdb;
#X obj 585 137 r v0post;
#X obj 652 137 r v1post;
#X obj 592 172 amp2db_st;
#X obj 592 219 s vudigitaldb;
#X obj 418 193 int;
#X obj 592 195 int;
#X obj 141 377 amp2db_st;
#X obj 418 168 amp2db_st;
#X obj 266 338 int;
#N canvas 47 91 914 727 send 0;
#X obj 377 564 r ui-speed-send;
#X obj 365 646 sendOSC;
#X msg 22 36 connect localhost 30018;
#X obj 22 15 loadbang;
#X msg 367 588 send /speedperiod_ms \$1;
#X obj 377 451 r ui-smooth-send;
#X msg 367 475 send /smooth_ms \$1;
#X obj 377 508 r ui-minvar-send;
#X msg 367 532 send /minvariation \$1;
#X obj 380 -48 r ui-gate0-send;
#X msg 370 -24 send /gate0db \$1;
#X obj 377 161 r ui-gate1-send;
#X msg 367 185 send /gate1db \$1;
#X obj 380 53 r ui-mastergaindb-send;
#X msg 370 78 send /mastergaindb \$1;
#X obj 377 294 r ui-mute-send;
#X msg 370 28 send /stereomagnify \$1;
#X msg 367 372 send /mastermute \$1;
#X msg 367 263 send /ringmodboost \$1;
#X obj 377 214 r ringmodboost-send;
#X obj 380 4 r stereomagn-send;
#X obj 379 106 r volcurve-send;
#X msg 369 134 send /volcurve \$1;
#X obj 377 396 r stop-send;
#X msg 367 422 send /stop 1;
#X obj 377 320 v g-mute;
#X obj 377 345 r mute-send;
#X obj 377 238 / 100;
#X obj 22 105 r gainanalog-send;
#X obj 22 125 db2amp;
#X msg 22 145 send /gainanalog \$1;
#X obj 22 196 db2amp;
#X obj 22 176 r gaindigital-send;
#X msg 22 216 send /gaindigital \$1;
#X obj 22 256 r ringspread-send;
#X msg 22 276 send /ringspread \$1;
#X obj 22 312 r diggainL-send;
#X msg 22 334 send /diggainL \$1;
#X obj 22 369 r diggainR-send;
#X msg 22 390 send /diggainR \$1;
#X obj 22 445 r feedback-send;
#X msg 22 468 send /feedback \$1;
#X msg 22 526 send /feedbackwet \$1;
#X obj 22 502 r feedbackwet-send;
#X obj 23 568 r testaudio-send;
#X msg 23 593 send /testaudio \$1;
#X obj 415 626 r osc-send;
#X obj 22 626 t a;
#X obj 658 626 t a;
#X obj 658 5 r shiftwet-send;
#X msg 658 28 send /shiftwet \$1;
#X obj 695 111 r phasewet-send;
#X msg 695 133 send /phasewet \$1;
#X obj 712 205 r gainanalogpost-send;
#X msg 712 258 send /gainanalogpost \$1;
#X obj 712 231 db2amp;
#X connect 0 0 4 0;
#X connect 2 0 47 0;
#X connect 3 0 2 0;
#X connect 4 0 1 0;
#X connect 5 0 6 0;
#X connect 6 0 1 0;
#X connect 7 0 8 0;
#X connect 8 0 1 0;
#X connect 9 0 10 0;
#X connect 10 0 1 0;
#X connect 11 0 12 0;
#X connect 12 0 1 0;
#X connect 13 0 14 0;
#X connect 14 0 1 0;
#X connect 15 0 25 0;
#X connect 15 0 17 0;
#X connect 16 0 1 0;
#X connect 17 0 1 0;
#X connect 18 0 1 0;
#X connect 19 0 27 0;
#X connect 20 0 16 0;
#X connect 21 0 22 0;
#X connect 22 0 1 0;
#X connect 23 0 24 0;
#X connect 24 0 1 0;
#X connect 26 0 17 0;
#X connect 27 0 18 0;
#X connect 28 0 29 0;
#X connect 29 0 30 0;
#X connect 30 0 47 0;
#X connect 31 0 33 0;
#X connect 32 0 31 0;
#X connect 33 0 47 0;
#X connect 34 0 35 0;
#X connect 35 0 47 0;
#X connect 36 0 37 0;
#X connect 37 0 47 0;
#X connect 38 0 39 0;
#X connect 39 0 47 0;
#X connect 40 0 41 0;
#X connect 41 0 47 0;
#X connect 42 0 47 0;
#X connect 43 0 42 0;
#X connect 44 0 45 0;
#X connect 45 0 47 0;
#X connect 46 0 1 0;
#X connect 47 0 1 0;
#X connect 48 0 1 0;
#X connect 49 0 50 0;
#X connect 50 0 48 0;
#X connect 51 0 52 0;
#X connect 52 0 48 0;
#X connect 53 0 55 0;
#X connect 54 0 48 0;
#X connect 55 0 54 0;
#X restore 15 -38 pd send;
#X obj 15 121 unpack f f f f f f f f f f f f f f;
#X obj 307 247 s vusourcepre;
#X obj 307 221 rmstofad;
#X connect 0 0 39 0;
#X connect 11 0 12 0;
#X connect 12 0 37 0;
#X connect 14 0 0 0;
#X connect 16 0 6 0;
#X connect 18 0 19 0;
#X connect 22 0 23 0;
#X connect 23 0 21 0;
#X connect 26 0 36 0;
#X connect 27 0 36 1;
#X connect 29 0 31 0;
#X connect 30 0 31 1;
#X connect 31 0 34 0;
#X connect 33 0 28 0;
#X connect 34 0 32 0;
#X connect 35 0 10 0;
#X connect 36 0 33 0;
#X connect 37 0 13 0;
#X connect 39 0 20 0;
#X connect 39 1 5 0;
#X connect 39 2 17 0;
#X connect 39 3 1 0;
#X connect 39 4 2 0;
#X connect 39 5 3 0;
#X connect 39 6 4 0;
#X connect 39 7 8 0;
#X connect 39 7 35 0;
#X connect 39 8 9 0;
#X connect 39 8 35 1;
#X connect 39 9 7 0;
#X connect 39 9 11 0;
#X connect 39 10 15 0;
#X connect 39 11 24 0;
#X connect 39 12 25 0;
#X connect 39 13 41 0;
#X connect 41 0 40 0;
#X restore 313 -131 pd osc;
#X obj 134 -46 hsl 128 15 0 1 0 1 ringspread-send ringspread-recv |
64 8 1 10 -262144 -1 -1 8800 1;
#X text 8 -49 RINGMOD - SPREAD;
#X text 23 -2 DIGITAL GAIN L;
#X obj 134 0 hsl 128 15 0 2 0 1 diggainL-send diggainL-recv | 64 8
1 10 -39609 -262144 -1 6200 1;
#X obj 134 43 hsl 128 15 0 2 0 1 diggainR-send diggainR-recv | 64 8
1 10 -39609 -262144 -1 7300 1;
#X text 115 42 R;
#X floatatom 131 59 5 0 0 0 - - -;
#X floatatom 131 16 5 0 0 0 - - -;
#X text 3 -64 ------------------------------------------;
#X obj 135 109 hsl 128 15 1e-05 1 0 1 feedback-send feedback-recv 0--------------------|--------------------1
-2 -8 1 9 -262144 -1 -1 12300 1;
#X text 63 106 FEEDBACK;
#X obj 136 150 hsl 128 15 0 1 0 1 feedbackwet-send feedbackwet-recv
| 64 8 1 10 -262144 -1 -1 2800 1;
#X text 38 148 FEEDBACK WET;
#X floatatom 133 165 5 0 0 0 - - -;
#X obj 11 -107 nbx 5 15 -1e+37 1e+37 0 0 empty ui-samplerate-recv samplerate
0 -6 0 8 -233017 -33289 -1 -1 256;
#X obj 11 -75 nbx 5 15 -1e+37 1e+37 0 0 empty guirate guirate 0 -6
0 8 -233017 -33289 -1 19 256;
#X obj 82 -107 tgl 15 0 testaudio-send empty TEST_AUDIO 17 7 0 10 -262144
-1 -1 0 1;
#X floatatom 132 124 5 0 0 0 - - #0-__;
#X obj 294 -45 nbx 3 18 0 10 0 1 volcurve-send volcurve-recv empty
0 -8 1 14 -262144 -39609 -39609 2.5 256;
#X text 340 -46 VOL PEDAL CURVE (1=linear);
#X text 8 -137 DEBUG;
#X obj 136 197 hsl 128 15 0 1 0 1 shiftwet-send shiftwet-recv | 64
8 1 10 -262144 -1 -1 0 1;
#X floatatom 133 212 5 0 0 0 - - -;
#X text 59 196 SHIFT WET;
#X obj 136 245 hsl 128 15 0 1 0 1 phasewet-send phasewet-recv | 64
8 1 10 -262144 -1 -1 3500 1;
#X floatatom 133 260 5 0 0 0 - - -;
#X text 59 244 PHASE WET;
#X connect 6 0 10 0;
#X connect 7 0 9 0;
#X connect 12 0 20 0;
#X connect 14 0 16 0;
#X connect 24 0 25 0;
#X connect 27 0 28 0;
#X restore 506 88 pd advanced;
#X obj 406 -166 knob 38 38 0 1 0 0 ui-inputknob-send ui-inputknob-recv
empty 0 -8 0 8 -262144 -258113 -1 2511 1;
#X obj 409 -125 nbx 3 14 -1e+37 1e+37 0 0 empty ui-inputnb-recv empty
0 -8 0 10 -1 -262144 -1 -3 256;
#X obj 266 -143 hsl 128 10 0 127 0 0 _ vusourcepre | 82 5 0 8 -33289
-260067 -262144 6192 1;
#X text 259 -162 INPUT PRE;
#X text 450 -162 POST;
#X obj 368 -76 nbx 3 13 -48 48 0 1 gainanalogpost-send gainanalogpost-recv
postgate(dB) 0 20 1 10 -99865 -262144 -66577 2 256;
