#N canvas 368 315 795 486 10;
#X text 33 15 SPEED ANALYSIS WINDOW (ms);
#X text 104 46 SMOOTHING (ms);
#X text 91 201 GATE THRESH (dB);
#X obj 200 14 nbx 3 20 5 120 0 1 ui-speed-send ui-speed-rcv empty 0
-8 1 16 -262144 -39609 -1 54 256;
#X obj 200 45 nbx 3 20 1 100 0 1 ui-smooth-send ui-smooth-rcv empty
0 -8 1 16 -262144 -39609 -1 7 256;
#X text 79 76 MIN VARIATION;
#X obj 200 76 nbx 4 20 0 1 0 1 ui-minvar-send ui-minvar-rcv empty 0
-8 1 16 -262144 -39609 -1 0.01 256;
#N canvas 826 300 450 300 init 1;
#X obj 242 131 loadbang;
#X msg 45 152 \; ui-speed-rcv bang \; ui-smooth-rcv bang \; ui-minvar-rcv
bang \;;
#X connect 0 0 1 0;
#X restore 678 53 pd init;
#N canvas 520 161 1196 638 osc 1;
#X obj 74 29 r ui-speed-send;
#X obj 100 182 sendOSC;
#X msg 159 165 connect localhost 30018;
#X obj 159 142 loadbang;
#X msg 74 53 send /speedperiod_ms \$1;
#X obj 236 24 r ui-smooth-send;
#X msg 238 48 send /smooth_ms \$1;
#X obj 302 90 r ui-minvar-send;
#X msg 305 114 send /minvariation \$1;
#X obj 688 42 dumpOSC 30019;
#X obj 688 71 OSCroute /info;
#X obj 644 154 unpack f f f f f f f f f;
#X obj 633 320 s v0pre;
#X obj 694 365 s v1pre;
#X obj 736 335 s v0post;
#X obj 777 280 s v1post;
#X obj 800 235 s dbL;
#X obj 801 186 s dbR;
#X obj 219 268 r ui-gate0-send;
#X msg 222 292 send /gate0db \$1;
#X obj 233 350 r ui-gate1-send;
#X msg 236 374 send /gate1db \$1;
#X obj 431 419 r ui-mastergaindb-send;
#X msg 431 444 send /mastergaindb \$1;
#X obj 165 460 r ui-mute-send;
#X msg 164 482 send /mastermute;
#X obj 407 332 r ui-stereomagnify-send;
#X msg 407 356 send /stereomagnify \$1;
#X obj 418 219 s ui-measuredspeed-recv;
#X obj 521 256 s ui-mix-recv;
#X obj 570 289 s source-vol-db;
#X obj 929 84 r source-vol-db;
#X obj 932 172 s ui-inputknob-recv;
#X connect 0 0 4 0;
#X connect 2 0 1 0;
#X connect 3 0 2 0;
#X connect 4 0 1 0;
#X connect 5 0 6 0;
#X connect 6 0 1 0;
#X connect 7 0 8 0;
#X connect 8 0 1 0;
#X connect 9 0 10 0;
#X connect 10 0 11 0;
#X connect 11 0 28 0;
#X connect 11 1 29 0;
#X connect 11 2 30 0;
#X connect 11 3 12 0;
#X connect 11 4 13 0;
#X connect 11 5 14 0;
#X connect 11 6 15 0;
#X connect 11 7 16 0;
#X connect 11 8 17 0;
#X connect 18 0 19 0;
#X connect 19 0 1 0;
#X connect 20 0 21 0;
#X connect 21 0 1 0;
#X connect 22 0 23 0;
#X connect 23 0 1 0;
#X connect 24 0 25 0;
#X connect 25 0 1 0;
#X connect 26 0 27 0;
#X connect 27 0 1 0;
#X restore 684 26 pd osc;
#X floatatom 199 113 5 0 800 0 CALCULATED_SPEED_(Hz) ui-calcspeed ui-calcspeed-send
;
#X text 62 119;
#X text 98 166 GATE -90dB (dB);
#X obj 201 164 nbx 3 20 -90 0 0 1 ui-gate0-send ui-gate0-rcv empty
0 -8 1 16 -262144 -39609 -262144 -68 256;
#X obj 201 201 nbx 3 20 -90 0 0 1 ui-gate1-send ui-gate1-rcv empty
0 -8 1 16 -262144 -39609 -262144 -68 256;
#X obj 319 127 hsl 128 8 0 1 0 0 _ v0pre empty -2 -8 0 10 -39609 -260097
-1 6000 1;
#X obj 319 138 hsl 128 8 0 1 0 0 _ v1pre empty -2 -8 0 10 -39609 -260097
-1 0 1;
#X obj 508 126 hsl 128 8 0 1 0 0 _ v0post empty -2 -8 0 10 -232001
-39609 -1 0 1;
#X obj 508 137 hsl 128 8 0 1 0 0 _ v1post empty -2 -8 0 10 -232001
-39609 -1 0 1;
#X text 103 247 STEREO MAGNIFY;
#X text 403 355 RINGMD BOOST;
#X text 418 291 MASTER GAIN (dB);
#X text 486 306 MUTE;
#X text 300 11 ANA;
#X text 326 11 DIG;
#X obj 201 246 nbx 4 20 0 10 0 1 ui-stereo-send ui-stereo-rcv empty
0 -8 1 16 -262144 -39609 -1 0.01 256;
#X text 502 109 DIG;
#X text 314 110 ANA;
#X obj 319 51 hsl 128 8 0 1 0 0 _ v0pre empty -2 -8 0 10 -231141 -37516
-1 6100 1;
#X obj 461 121 knob 32 32 0 1 0 0 ui-mix-send ui-mix-rcv empty 0 -8
0 8 -262144 -39609 -1 3100 1;
#X text 313 35 SRC;
#X text 307 74 INPUT GAIN (dB);
#X obj 404 73 nbx 3 20 -110 0 0 1 ui-gate0-send ui-gate0-rcv empty
0 -8 1 16 -262144 -39609 -262144 0 256;
#X obj 395 261 hsl 128 8 0 1 0 0 _ dbL-rcv empty -2 -8 0 10 -232001
-39609 -1 0 1;
#X obj 395 272 hsl 128 8 0 1 0 0 _ dbR empty -2 -8 0 10 -232001 -39609
-1 0 1;
