#N canvas 715 351 450 300 10;
#X obj 124 54 +;
#X obj 124 79 / 2;
#X obj 124 104 rmstodb;
#X obj 124 126 - 100;
#X obj 55 17 inlet;
#X obj 166 16 inlet;
#X obj 124 151 outlet;
#X connect 0 0 1 0;
#X connect 1 0 2 0;
#X connect 2 0 3 0;
#X connect 3 0 6 0;
#X connect 4 0 0 0;
#X connect 5 0 0 1;
