#N canvas 1027 338 590 399 10;
#X obj 131 34 inlet;
#X obj 129 122 % 12;
#X obj 122 87 int;
#X msg -7 204 C;
#X msg 36 209 C#;
#X msg 86 215 D;
#X msg 122 220 D#;
#X msg 155 221 E;
#X msg 209 224 F;
#X msg 258 221 F#;
#X obj 144 158 select 0 1 2 3 4 5 6 7 8 9 10 11 ------------;
#X msg 294 214 G;
#X msg 329 226 Ab;
#X msg 361 219 A;
#X msg 389 236 Bb;
#X msg 399 212 B;
#X obj 240 69 / 12;
#X obj 182 289 pack s f;
#X obj 281 125 - 1;
#X obj 64 54 t f f;
#X msg 182 311 set \$1\$2;
#X obj 182 340 outlet;
#X obj 238 93 int;
#X connect 0 0 19 0;
#X connect 1 0 10 0;
#X connect 2 0 1 0;
#X connect 3 0 17 0;
#X connect 4 0 17 0;
#X connect 5 0 17 0;
#X connect 6 0 17 0;
#X connect 7 0 17 0;
#X connect 8 0 17 0;
#X connect 9 0 17 0;
#X connect 10 0 3 0;
#X connect 10 1 4 0;
#X connect 10 2 5 0;
#X connect 10 3 6 0;
#X connect 10 4 7 0;
#X connect 10 5 8 0;
#X connect 10 6 9 0;
#X connect 10 7 11 0;
#X connect 10 8 12 0;
#X connect 10 9 13 0;
#X connect 10 10 14 0;
#X connect 10 11 15 0;
#X connect 11 0 17 0;
#X connect 12 0 17 0;
#X connect 13 0 17 0;
#X connect 14 0 17 0;
#X connect 15 0 17 0;
#X connect 16 0 22 0;
#X connect 17 0 20 0;
#X connect 18 0 17 1;
#X connect 19 0 2 0;
#X connect 19 1 16 0;
#X connect 20 0 21 0;
#X connect 22 0 18 0;
