#N canvas 540 341 450 300 10;
#X obj 104 62 inlet;
#X obj 154 63 inlet;
#X obj 190 126 t b f;
#X obj 98 207 outlet;
#X obj 232 59 inlet;
#X obj 282 60 inlet;
#X obj 245 126 t b f;
#X obj 98 168 pack \$1 \$2 \$3 \$4;
#X obj 303 132 t b f;
#X connect 0 0 7 0;
#X connect 1 0 2 0;
#X connect 2 0 7 0;
#X connect 2 1 7 1;
#X connect 4 0 6 0;
#X connect 5 0 8 0;
#X connect 6 0 7 0;
#X connect 6 1 7 2;
#X connect 7 0 3 0;
#X connect 8 0 7 0;
#X connect 8 1 7 3;
