#N canvas 334 74 894 622 10;
#X obj 439 418 rectangle 4 3, f 17;
#X obj 439 394 pix_texture;
#X obj 45 189 pix_video;
#X msg 58 95 device 6;
#N canvas 162 133 570 420 serin 0;
#X obj 205 60 cnv 20 20 20 empty \$0-open-canvas 6 4 10 0 16 -233017
-1 0;
#X obj 60 61 hradio 18 1 1 8 empty empty empty 0 -6 0 8 -225271 -1
-1 6;
#X obj 60 13 inlet;
#X msg 200 202 label \$1;
#X obj 200 180 makefilename %d;
#X obj 59 108 int;
#X obj 59 337 outlet;
#X msg 201 306 set \$1 \$2;
#X obj 59 266 trigger bang anything;
#X obj 201 286 list;
#X obj 200 225 send \$0-open-canvas;
#X msg 60 210 device \$1;
#X connect 1 0 5 0;
#X connect 2 0 1 0;
#X connect 3 0 10 0;
#X connect 4 0 3 0;
#X connect 5 0 4 0;
#X connect 5 0 11 0;
#X connect 7 0 6 0;
#X connect 8 0 6 0;
#X connect 8 1 9 0;
#X connect 9 0 7 0;
#X connect 11 0 8 0;
#X coords 0 -1 1 1 165 20 1 60 60;
#X restore 58 71 pd serin;
#X msg 270 186 0 \, destroy;
#X msg 271 211 1 \, create;
#X obj 101 210 print info;
#X obj 45 34 gemhead 1;
#X msg 271 125 dimen \$1 \$2;
#X msg 396 14 0 \, destroy;
#X obj 244 47 delay 200 1 msec;
#X obj 244 70 list, f 8;
#X obj 244 -3 t b a b, f 15;
#X obj 244 93 t a a;
#X obj 396 36 s gemwin;
#X obj 350 238 r gemwin;
#X obj 432 249 colorRGB;
#X obj 432 271 alpha;
#X obj 439 299 pix_contrast;
#X obj 473 -81 vsl 15 128 0 1 0 0 empty empty empty 0 -9 0 10 -262144
-1 -1 7700 1;
#X obj 477 168 expr $f1 * ($f2-$f3) + $f3;
#X floatatom 477 133 5 0 0 0 - - -, f 5;
#X obj 554 148 nbx 5 14 -1e+37 1e+37 0 1 empty empty empty 0 -8 0 10
-262144 -1 -1 1 256;
#X obj 630 147 nbx 5 14 -1e+37 1e+37 0 1 empty empty empty 0 -8 0 10
-262144 -1 -1 0.2 256;
#X obj 54 229 pix_grey;
#X obj 477 110 line;
#X msg 477 88 \$1 50;
#X obj 502 -29 ctlin 99;
#X floatatom 502 -7 5 0 0 0 - - -, f 5;
#X obj 502 12 / 127;
#X obj 538 317 nbx 5 14 -1e+37 1e+37 0 0 empty empty empty 0 -8 0 10
-262144 -1 -1 4 256;
#X obj 550 337 expr $f1 * $f2 / $f3;
#X obj 608 269 unpack, f 10;
#X obj 685 286 /;
#X floatatom 685 307 5 0 0 0 - - -, f 5;
#X msg 244 159 dimen \$1 \$2 \, create \, 1;
#X obj 45 255 s frompixvideo;
#X obj 432 223 r frompixvideo;
#X obj 298 19 s dimensions;
#X obj 608 245 r dimensions;
#X msg 73 121 dimen 1080 720;
#X text 552 130 MAX UND MIN ALPHA;
#X obj 627 -65 nbx 5 14 -1e+37 1e+37 0 1 picsize-snd empty Picture-Size
0 -8 0 10 -262144 -1 -1 4 256;
#X obj 538 293 r picsize-snd;
#X obj 244 -24 r resolution;
#X msg 628 8 1080 720;
#X text 625 -33 RESOLUTION;
#X obj 628 75 s resolution;
#X obj 39 -90 cnv 15 200 60 empty empty empty 20 12 0 14 -233017 -66577
0;
#X msg 45 -64 dialog;
#X text 42 -81 CONFIGURE CAMERA;
#X msg 628 29 800 534;
#X obj 293 283 tgl 15 0 empty empty empty 17 7 0 10 -262144 -1 -1 0
1;
#X msg 293 303 fullscreen \$1;
#X msg 293 332 frame 30;
#X obj 629 373 vradio 15 1 0 3 empty empty empty 0 -8 0 10 -262144
-1 -1 0;
#X floatatom 629 444 5 0 0 0 - - -, f 5;
#X text 651 370 deactivate fullscreen;
#X text 650 387 fullscreen on screen 1;
#X text 650 403 fullscreen on screen 2;
#X obj 629 486 s gemwin;
#X msg 629 465 fullscreen \$1 \, create \, 1;
#X msg 555 443 0 \, destroy;
#X obj 629 423 pipe 200;
#X msg 628 51 1200 800;
#N canvas 146 121 450 300 osc 0;
#X obj 32 13 netreceive -u -b 22222;
#X obj 32 35 unpack f f f f f f f f f f f f;
#X floatatom 211 72 5 0 0 0 - - -, f 5;
#X floatatom 174 72 5 0 0 0 - - -, f 5;
#X obj 175 121 expr $f1 * 256 + $f2;
#X obj 32 84 pack f f f f;
#X obj 91 170 outlet;
#X obj 199 167 outlet;
#X text 78 189 number (int);
#X text 199 185 message (4 chars);
#X obj 354 163 >= 0;
#X obj 354 207 outlet, f 8;
#X text 355 145 active?;
#X obj 354 185 change -1;
#X connect 0 0 1 0;
#X connect 1 0 5 0;
#X connect 1 1 5 1;
#X connect 1 2 5 2;
#X connect 1 3 5 3;
#X connect 1 10 3 0;
#X connect 1 11 2 0;
#X connect 2 0 4 1;
#X connect 3 0 4 0;
#X connect 4 0 6 0;
#X connect 4 0 10 0;
#X connect 5 0 7 0;
#X connect 10 0 13 0;
#X connect 13 0 11 0;
#X restore 546 22 pd osc;
#X obj 546 45 / 1000;
#X text 545 5 UDP 22222;
#X text 43 482 Installation: PD 0.45.4 (vanilla) GEM 0.93.3 http://sourceforge.net/projects/pd-gem/
;
#X text 43 385 1 Set Resolution (1080x720 \, etc.) 2 Configure Camera
(Compression \, etc) 3 Set picture size to fit the screen;
#X obj 590 22 tgl 15 0 empty empty empty 17 7 0 10 -4034 -1 -1 1 1
;
#X obj 446 368 rotateXYZ;
#X msg 480 344 -180;
#X obj 480 321 loadbang;
#X obj 797 442 tgl 15 0 empty empty empty 17 7 0 10 -262144 -1 -1 1
1;
#X msg 797 463 border \$1;
#X obj 797 484 s gemwin;
#X msg 82 145 dimen 900 600;
#X text 43 432 Resolution: 900x600 Compression: YUV \, best;
#X msg 628 -13 800 600;
#X obj 243 255 gemwin 30, f 15;
#X connect 1 0 0 0;
#X connect 2 0 37 0;
#X connect 2 1 7 0;
#X connect 3 0 2 0;
#X connect 4 0 3 0;
#X connect 5 0 81 0;
#X connect 6 0 81 0;
#X connect 8 0 2 0;
#X connect 9 0 2 0;
#X connect 10 0 15 0;
#X connect 11 0 12 0;
#X connect 12 0 14 0;
#X connect 13 0 11 0;
#X connect 13 1 12 1;
#X connect 13 1 39 0;
#X connect 13 2 10 0;
#X connect 14 0 36 0;
#X connect 14 1 9 0;
#X connect 16 0 81 0;
#X connect 17 0 18 0;
#X connect 18 0 19 0;
#X connect 19 0 1 0;
#X connect 20 0 27 0;
#X connect 21 0 17 4;
#X connect 22 0 21 0;
#X connect 22 0 19 2;
#X connect 23 0 21 1;
#X connect 24 0 21 2;
#X connect 25 0 37 0;
#X connect 26 0 22 0;
#X connect 27 0 26 0;
#X connect 28 0 29 0;
#X connect 29 0 30 0;
#X connect 30 0 27 0;
#X connect 31 0 0 2;
#X connect 31 0 32 0;
#X connect 32 0 0 1;
#X connect 33 0 32 1;
#X connect 33 0 34 0;
#X connect 33 1 32 2;
#X connect 33 1 34 1;
#X connect 34 0 35 0;
#X connect 36 0 81 0;
#X connect 38 0 17 0;
#X connect 40 0 33 0;
#X connect 41 0 2 0;
#X connect 44 0 31 0;
#X connect 45 0 13 0;
#X connect 46 0 48 0;
#X connect 50 0 2 0;
#X connect 52 0 48 0;
#X connect 53 0 54 0;
#X connect 54 0 81 0;
#X connect 55 0 81 0;
#X connect 56 0 63 0;
#X connect 56 0 64 0;
#X connect 57 0 62 0;
#X connect 62 0 61 0;
#X connect 63 0 61 0;
#X connect 64 0 57 0;
#X connect 65 0 48 0;
#X connect 66 0 67 0;
#X connect 66 2 71 0;
#X connect 67 0 27 0;
#X connect 72 0 1 0;
#X connect 73 0 72 2;
#X connect 74 0 73 0;
#X connect 75 0 76 0;
#X connect 76 0 77 0;
#X connect 78 0 2 0;
#X connect 80 0 48 0;
