#N canvas 652 26 414 334 10;
#X obj 20 19 hsl 200 15 0 1000 0 0 empty empty empty -2 -8 0 10 -262144
-1 -1 4600 1;
#X msg 222 197 connect 127.0.0.1 22222;
#X obj 17 37 int;
#X msg 235 222 disconnect;
#X obj 222 251 sendOSC;
#X msg 18 58 send /A \$1;
#X obj 20 145 hsl 200 15 0 1000 0 0 empty empty empty -2 -8 0 10 -262144
-1 -1 0 1;
#X obj 17 165 int;
#X msg 18 186 send /minbrightness \$1;
#X obj 222 176 loadbang;
#X connect 0 0 2 0;
#X connect 1 0 4 0;
#X connect 2 0 5 0;
#X connect 3 0 4 0;
#X connect 5 0 4 0;
#X connect 6 0 7 0;
#X connect 7 0 8 0;
#X connect 8 0 4 0;
#X connect 9 0 1 0;
